<?xml version="1.0" encoding="UTF-8"?>
<svg id="Calque_1" data-name="Calque 1" xmlns="http://www.w3.org/2000/svg" xmlns:xlink="http://www.w3.org/1999/xlink" viewBox="0 0 600 600">
  <defs>
    <style>
      .cls-1 {
        fill: #01adaa;
      }

      .cls-2 {
        fill: none;
      }

      .cls-3 {
        clip-path: url(#clippath);
      }
    </style>
    <clipPath id="clippath">
      <rect class="cls-2" x="0" width="600" height="600"/>
    </clipPath>
  </defs>
  <g class="cls-3">
    <g>
      <path class="cls-1" d="M300,0C134.31,0,0,134.31,0,300s134.31,300,300,300,300-134.31,300-300S465.69,0,300,0ZM288.37,495.05c-88.45,0-145.77-66.34-145.77-166.72,0-129.68,89.85-223.41,190.95-223.41,61.18,0,97.64,29.49,97.64,72.69s-31.24,73.79-57.86,73.79c-6.63,0-9.97-3.25-9.97-8.62,0-11.97,19.28-29.93,19.28-63.86,0-28.59-17.45-46.55-46.04-46.55-61.17,0-130.82,72.27-130.82,197.27,0,73.79,36.65,127.21,95.82,127.21,51.17,0,95.4-36.73,121-88.65,2.27-4.57,4.44-6.66,6.92-6.66,3.58,0,7.01,3.08,7.01,9.79,0,30.32-54.28,123.72-148.16,123.72Z"/>
      <path class="cls-2" d="M429.52,361.54c-2.48,0-4.65,2.09-6.92,6.66-25.6,51.92-69.83,88.65-121,88.65-59.17,0-95.82-53.42-95.82-127.21,0-125,69.65-197.27,130.82-197.27,28.59,0,46.04,17.96,46.04,46.55,0,33.93-19.28,51.89-19.28,63.86,0,5.37,3.34,8.62,9.97,8.62,26.62,0,57.86-30.59,57.86-73.79s-36.46-72.69-97.64-72.69c-101.1,0-190.95,93.73-190.95,223.41,0,100.38,57.32,166.72,145.77,166.72,93.88,0,148.16-93.4,148.16-123.72,0-6.71-3.43-9.79-7.01-9.79Z"/>
    </g>
  </g>
</svg>