<?xml version="1.0" encoding="UTF-8"?>
<svg id="Calque_1" data-name="Calque 1" xmlns="http://www.w3.org/2000/svg" viewBox="0 0 600 600">
  <defs>
    <style>
      .cls-1 {
        fill: #03aca9;
      }
    </style>
  </defs>
  <path class="cls-1" d="M0,0v504c0,53.02,42.98,96,96,96h408c53.02,0,96-42.98,96-96h0V96C600,42.98,557.02,0,504,0h0s-504,0-504,0ZM356.4,327c39,0,57,27,57.6,66h-40.2c.6-7.2-1.2-15-3.6-21-2.4-4.8-7.2-6.6-13.8-6.6-11.4,0-17.4,6.6-17.4,21-.6,14.4,7.2,22.2,19.2,27,18,7.2,40.2,18.6,48,32.4,7.2,10.8,10.8,24.6,10.8,41.4,0,40.2-22.8,64.8-62.4,64.8s-60-25.8-60.6-67.2h42c0,19.8,6.6,29.4,19.8,29.4,6.6,0,11.4-1.8,13.8-6,4.8-7.8,6-29.4-1.2-37.8-7.8-10.2-22.8-15-33-20.4-13.8-6.6-24-14.4-30.6-23.4-6-9-9-22.2-9-38.4,0-36,23.4-61.8,60.6-61.2M491.4,327c39.6,0,57.6,27,58.2,66h-40.2c0-7.2-1.2-15-4.2-21-2.4-4.8-6.6-6.6-13.2-6.6-12,0-18,6.6-18,21s7.2,22.2,19.8,27c17.4,7.2,40.2,18.6,48,32.4,6.6,10.8,10.2,24.6,10.2,41.4.6,40.2-22.2,64.8-61.8,64.8-42,0-60.6-26.4-61.2-67.2h42c0,18.6,6.6,29.4,19.8,29.4,6.6,0,11.4-1.8,13.8-6,5.4-7.8,6.6-29.4-1.2-37.8-7.2-10.2-22.2-15-33-20.4-13.8-6.6-24-14.4-30-23.4-6-9-9-22.2-9-38.4-.6-36,22.8-61.8,60-61.2M215.62,327.45c17.78-.15,35.47,4.95,45.97,15.75,10.8,10.8,16.8,28.2,16.2,49.8h-44.4c.6-11.4-2.4-19.8-10.8-24-7.8-3.6-19.2-1.2-22.2,6-3,6.6-4.8,14.4-4.2,21.6v87.6c0,18.6,6.6,28.2,19.2,28.2,5.41.24,10.59-2.24,13.8-6.6,4.2-6,4.8-13.8,4.2-21h44.4c2.4,40.8-24.6,67.8-64.2,67.2-38.4,0-62.4-21.6-61.8-61.8v-100.8c0-20.4,6-36,17.4-46.2,10.8-10.2,28.65-15.6,46.43-15.75"/>
</svg>