<?xml version="1.0" encoding="UTF-8"?>
<svg id="Calque_1" data-name="Calque 1" xmlns="http://www.w3.org/2000/svg" viewBox="0 0 600 585.14">
  <defs>
    <style>
      .cls-1 {
        fill: #03aca9;
      }
    </style>
  </defs>
  <path class="cls-1" d="M300,0C134.25,0,0,134.33,0,300c0,132.58,85.95,245,205.12,284.62,15,2.83,20.5-6.45,20.5-14.42,0-7.12-.25-26-.38-51-83.45,18.1-101.05-40.25-101.05-40.25-13.65-34.62-33.37-43.87-33.37-43.87-27.17-18.6,2.1-18.23,2.1-18.23,30.12,2.1,45.95,30.9,45.95,30.9,26.75,45.87,70.23,32.63,87.37,24.95,2.7-19.4,10.42-32.63,19-40.12-66.62-7.5-136.65-33.3-136.65-148.25,0-32.75,11.63-59.5,30.88-80.5-3.38-7.58-13.5-38.07,2.63-79.4,0,0,25.13-8.05,82.5,30.75,24-6.68,49.5-9.98,75-10.13,25.5.15,51,3.45,75,10.13,57-38.8,82.13-30.75,82.13-30.75,16.13,41.32,6,71.82,3,79.4,19.12,21,30.75,47.75,30.75,80.5,0,115.25-70.13,140.62-136.88,148,10.5,9,20.25,27.4,20.25,55.5,0,40.15-.38,72.4-.38,82.15,0,7.88,5.25,17.25,20.62,14.25,120.02-39.35,205.9-151.85,205.9-284.22C600,134.33,465.67,0,300,0"/>
</svg>