<?xml version="1.0" encoding="UTF-8"?>
<svg id="Calque_1" data-name="Calque 1" xmlns="http://www.w3.org/2000/svg" viewBox="0 0 600 600">
  <defs>
    <style>
      .cls-1 {
        fill: #03aca9;
      }
    </style>
  </defs>
  <path class="cls-1" d="M0,0h600v600H0V0ZM550.85,456.9c-4.37-27.37-22.2-50.37-75.08-71.83-18.4-8.63-38.85-14.63-44.93-28.5-2.27-8.25-2.62-12.75-1.15-17.62,3.75-16.15,22.88-21,37.87-16.5,9.75,3,18.75,10.5,24.4,22.5q25.85-16.9,43.87-28.13c-6.75-10.5-10.1-15.02-14.65-19.5-15.75-17.62-36.72-26.62-70.85-25.85l-17.62,2.22c-16.9,4.12-33,13.12-42.75,25.13-28.5,32.28-20.27,88.52,14.22,111.77,34.12,25.5,84.03,31.1,90.4,55.12,6,29.25-21.75,38.63-49.15,35.25-20.28-4.5-31.5-14.65-43.87-33.4l-45.75,26.28c5.25,12,11.25,17.22,20.25,27.72,43.5,43.9,152.25,41.65,171.77-25.1.72-2.25,6-17.62,1.85-41.25,0,0,1.15,1.67,1.15,1.68ZM326.28,275.77h-56.2c0,48.45-.22,96.6-.22,145.12,0,30.8,1.57,59.07-3.45,67.78-8.25,17.22-29.5,15.02-39.15,12-9.9-4.9-14.93-11.65-20.75-21.37-1.57-2.62-2.75-4.9-3.17-4.9l-45.62,28.12c7.62,15.75,18.75,29.3,33.1,37.93,21.38,12.75,50.1,16.87,80.18,10.13,19.57-5.65,36.45-17.27,45.27-35.27,12.75-23.25,10.05-51.75,9.93-83.65.3-51.35,0-102.73,0-154.47,0,0,.1-1.4.1-1.4Z"/>
</svg>